<?xml version="1.0" encoding="UTF-8" standalone="no"?>
<svg width="250px" height="250px" viewBox="0 0 250 250" version="1.1" xmlns="http://www.w3.org/2000/svg" xmlns:xlink="http://www.w3.org/1999/xlink">
    <!-- Generator: Sketch 3.6.1 (26313) - http://www.bohemiancoding.com/sketch -->
    <title>Logo Link</title>
    <desc>Created with Sketch.</desc>
    <defs></defs>
    <g id="Page-1" stroke="none" stroke-width="1" fill="none" fill-rule="evenodd">
        <g id="Logo" transform="translate(-104.000000, -83.000000)">
            <g id="Logo-Link" transform="translate(104.000000, 83.000000)">
                <rect id="Rectangle-27" fill="#333332" x="0" y="0" width="250" height="250"></rect>
                <g id="Group-4" transform="translate(30.500000, 65.000000)" fill="#F4F5F0">
                    <path d="M165.97149,41.2127659 C166.227811,42.9771749 166.648036,47.6760292 165.199193,54.0574396 C163.339612,62.2479422 155.172916,62.8133816 154.535337,64.8612159 C153.897759,66.9090502 165.92179,76.1206507 181.307989,55.111389 C194.584126,36.9833359 188.074514,17.8851671 186.03937,12.9878649 C182.99953,5.37812295 175.546064,0 166.833333,0 C155.419449,0 146.166667,9.22973192 146.166667,20.6151832 C146.166667,31.7126519 154.95729,40.7620752 165.97149,41.2127659 Z" id="Combined-Shape"></path>
                    <path d="M23.6205959,51.1008399 L46.7428197,111.336292 C50.7502581,121.776026 62.4682,126.998481 72.911272,122.989762 C73.6071213,122.72265 74.2797506,122.421338 74.9279803,122.08848 C74.9505842,122.522369 75.026961,122.627089 75.026961,122.627089 C75.026961,122.627089 88.0095168,117.726391 95.4214252,100.888737 C100.555987,89.2245375 101.878304,80.2600733 102.206149,75.8524853 L115.859261,111.420057 C119.861965,121.847458 131.579994,127.07014 142.023066,123.061421 C152.468435,119.051819 157.683769,107.341266 153.67697,96.9031986 L121.673452,13.5311828 C117.670748,3.10378141 105.952719,-2.1189005 95.5096466,1.88981928 C85.0642784,5.89942046 79.848944,17.609974 83.8557426,28.0480413 L89.9263226,43.8624428 C90.5408203,49.5340304 91.8234119,69.3552431 83.3777237,92.6607142 C83.3103079,92.8467448 83.2434212,93.0316285 83.1770594,93.2153723 L61.4383052,36.5839814 L62.7005528,36.09945 C71.288825,32.8027212 75.5752081,23.175953 72.281235,14.5948599 C68.9865377,6.01187996 59.3572589,1.72899872 50.7720212,5.02456271 L10.82726,20.3579199 C2.23898786,23.6546487 -2.04739521,33.2814168 1.24657784,41.86251 C4.54127514,50.4454899 14.1705539,54.7283712 22.7557917,51.4328072 L23.6205959,51.1008399 Z" id="Combined-Shape"></path>
                </g>
            </g>
        </g>
    </g>
</svg>