<?xml version="1.0" encoding="UTF-8" standalone="no"?>
<svg width="250px" height="250px" viewBox="0 0 250 250" version="1.1" xmlns="http://www.w3.org/2000/svg" xmlns:xlink="http://www.w3.org/1999/xlink">
    <!-- Generator: Sketch 3.6.1 (26313) - http://www.bohemiancoding.com/sketch -->
    <title>Logo Link Copy 4</title>
    <desc>Created with Sketch.</desc>
    <defs></defs>
    <g id="Page-1" stroke="none" stroke-width="1" fill="none" fill-rule="evenodd">
        <g id="Logo" transform="translate(-104.000000, -367.000000)">
            <g id="Logo-Link-Copy-4" transform="translate(104.000000, 367.000000)">
                <rect id="Rectangle-27" fill="#333332" x="0" y="0" width="250" height="250"></rect>
                <g id="Group-4" transform="translate(25.000000, 35.000000)" fill="#F4F5F0">
                    <path d="M175.1678,43.4963229 C175.438322,45.3584959 175.881832,50.3177089 174.35271,57.0527067 C172.390092,65.6970366 163.770887,66.2938064 163.097981,68.4551092 C162.425076,70.6164119 175.115345,80.3384176 191.354078,58.1650543 C205.365832,39.0325445 198.495529,18.8761658 196.34762,13.7075091 C193.139346,5.6761192 185.272891,0 176.077397,0 C164.03108,0 154.265611,9.74114187 154.265611,21.7574493 C154.265611,33.4698173 163.543314,43.0206598 175.1678,43.4963229 Z" id="Combined-Shape"></path>
                    <path d="M24.9293888,53.9322849 L49.3327913,117.505322 C53.5622776,128.52351 65.9294986,134.035336 76.9512106,129.804498 C77.6856161,129.522586 78.3955152,129.204578 79.0796626,128.853277 C79.103519,129.311207 79.1841278,129.421729 79.1841278,129.421729 C79.1841278,129.421729 92.8860335,124.249489 100.708628,106.478878 C106.127691,94.1683774 107.523276,84.7072014 107.869287,80.0553935 L122.272165,117.576174 C126.503394,128.598901 138.870706,134.110966 149.892418,129.880127 C160.916554,125.648358 166.417847,113.281076 162.185315,102.254951 L128.421991,14.2984856 C124.190763,3.27575875 111.82345,-2.23630659 100.801738,1.99453222 C89.7776025,6.22630128 84.2763086,18.5935836 88.5088413,29.6197082 L94.9090476,46.2928156 C95.5575939,52.2786601 96.9112526,73.1981458 87.9975976,97.794949 C87.9264463,97.9912874 87.8558535,98.1864153 87.7858147,98.3803402 L64.8425385,38.6110622 L66.1747259,38.0996834 C75.2388654,34.6202862 79.7627526,24.4601088 76.2862639,15.403546 C72.8090108,6.34499204 62.6461836,1.82480076 53.5852466,5.30296856 L11.4271874,21.4859313 C2.36304787,24.9653285 -2.16083927,35.1255059 1.31564943,44.1820686 C4.79290252,53.2406226 14.9557297,57.7608139 24.0166667,54.2826461 L24.9293888,53.9322849 Z" id="Combined-Shape"></path>
                </g>
                <text id="www.tristanwhite.inf" font-family="Roboto-Bold, Roboto" font-size="18" font-weight="bold" line-spacing="25" letter-spacing="1.125" fill="#F4F5F0">
                    <tspan x="25.234375" y="207">www.tristanwhite.info</tspan>
                </text>
            </g>
        </g>
    </g>
</svg>