<?xml version="1.0" encoding="UTF-8" standalone="no"?>
<svg width="180px" height="119px" viewBox="0 0 180 119" version="1.1" xmlns="http://www.w3.org/2000/svg" xmlns:xlink="http://www.w3.org/1999/xlink">
    <!-- Generator: Sketch 3.6.1 (26313) - http://www.bohemiancoding.com/sketch -->
    <title>Group 4 Copy 2</title>
    <desc>Created with Sketch.</desc>
    <defs></defs>
    <g id="Page-1" stroke="none" stroke-width="1" fill="none" fill-rule="evenodd">
        <g id="Logo" transform="translate(-486.000000, -298.000000)" stroke="#333332" stroke-width="2">
            <g id="Group-4-Copy-2" transform="translate(486.000000, 298.000000)">
                <path d="M157.652922,39.1471629 C157.896395,40.8231389 158.295559,45.2864845 156.919333,51.3480556 C155.152955,59.1280464 147.395577,59.6651457 146.789954,61.6103416 C146.184332,63.5555376 157.605712,72.3054483 172.220748,52.3491805 C184.831479,35.1297139 178.648132,16.9887542 176.71499,12.3369071 C173.827509,5.10856892 166.747614,0 158.471569,0 C147.629754,0 138.840725,8.76713347 138.840725,19.5819407 C138.840725,30.1231991 147.190759,38.719061 157.652922,39.1471629 Z" id="Combined-Shape"></path>
                <path d="M22.4367207,48.5396421 L44.4000479,105.756066 C48.2066315,115.672555 59.3372647,120.633258 69.2569252,116.825458 C69.9178981,116.571734 70.556815,116.285524 71.1725551,115.969348 C71.1940261,116.381491 71.2665749,116.480962 71.2665749,116.480962 C71.2665749,116.480962 83.5984389,111.825889 90.638859,95.8321462 C95.5160742,84.7525623 96.772116,76.2374011 97.0835297,72.0507235 L110.052341,105.835632 C113.854428,115.740407 124.985144,120.701326 134.904804,116.893525 C144.826646,113.084887 149.780585,101.961272 145.974609,92.0463653 L115.575122,12.8529936 C111.773035,2.94821844 100.642319,-2.01270022 90.7226587,1.79510066 C80.8008172,5.60373877 75.8468778,16.7273539 79.6528538,26.6422604 L85.4191735,41.6640367 C86.0028723,47.0513618 87.2211798,65.8791261 79.1987934,88.0165161 C79.1347566,88.1932228 79.0712222,88.3688401 79.0081865,88.5433746 L58.3589888,34.7503753 L59.557972,34.2901288 C67.715796,31.1586335 71.7873435,22.0143635 68.6584659,13.8633587 C65.5289004,5.71056174 56.3822455,1.6423405 48.2273039,4.77272929 L10.2845927,19.3375715 C2.12676874,22.4690667 -1.94477881,31.6133368 1.18409878,39.7643416 C4.31366432,47.9171385 13.4603192,51.9853598 21.6152608,48.854971 L22.4367207,48.5396421 Z" id="Combined-Shape"></path>
            </g>
        </g>
    </g>
</svg>