<svg width="88px" height="77px" viewBox="0 0 88 77" version="1.1" xmlns="http://www.w3.org/2000/svg" xmlns:xlink="http://www.w3.org/1999/xlink">
  <g id="letter" transform="translate(43.901155, 38.479181) rotate(-25.000000) translate(-43.901155, -38.479181) translate(7.901155, 12.979181)" fill="#000000">
    <path d="M65.559,50.557 L6.956,50.557 C3.463,50.557 0.619,47.448 0.619,43.625 L0.619,7.639 C0.619,3.818 3.463,0.707 6.956,0.707 L65.559,0.707 C69.053,0.707 71.896,3.817 71.896,7.639 L71.896,43.625 C71.896,47.447 69.053,50.557 65.559,50.557 L65.559,50.557 Z M6.956,6.858 C6.232,6.858 5.787,7.363 5.787,7.638 L5.787,43.624 C5.787,43.899 6.232,44.404 6.956,44.404 L65.559,44.404 C66.283,44.404 66.728,43.899 66.728,43.624 L66.728,7.639 C66.728,7.364 66.283,6.859 65.559,6.859 L6.956,6.859 L6.956,6.858 Z" id="Shape"></path>
    <path d="M68,5.6 L36.231,24.131 L5.08,5.609 L1.604,10.232 L36.157,30.777 L71.435,10.25 L68,5.6 Z" id="Shape"></path>
  </g>
</svg>
