<?xml version="1.0" standalone="no"?>
<!DOCTYPE svg PUBLIC "-//W3C//DTD SVG 20010904//EN"
 "http://www.w3.org/TR/2001/REC-SVG-20010904/DTD/svg10.dtd">
<svg version="1.0" xmlns="http://www.w3.org/2000/svg"
 width="540.000000pt" height="540.000000pt" viewBox="0 0 540.000000 540.000000"
 preserveAspectRatio="xMidYMid meet">
<metadata>
Created by potrace 1.11, written by Peter Selinger 2001-2013
</metadata>
<g transform="translate(0.000000,540.000000) scale(0.100000,-0.100000)"
fill="#000000" stroke="none">
<path d="M4610 4461 c-94 -26 -147 -52 -215 -106 -79 -63 -129 -125 -170 -210
-93 -194 -74 -415 51 -591 94 -134 242 -223 399 -241 28 -3 52 -7 53 -8 8 -7
8 -188 1 -247 -26 -203 -86 -291 -255 -376 -78 -39 -84 -55 -40 -97 66 -62
198 -76 316 -33 221 80 478 378 583 673 92 262 81 605 -29 875 -69 171 -199
294 -374 353 -78 27 -235 30 -320 8z"/>
<path d="M2833 4454 c-266 -46 -455 -254 -479 -528 -9 -105 11 -182 117 -457
50 -129 93 -251 96 -272 13 -93 4 -507 -12 -600 -3 -15 -7 -39 -9 -54 -14
-105 -20 -138 -37 -223 -32 -151 -35 -164 -69 -280 -48 -161 -67 -214 -72
-204 -4 5 -74 187 -157 404 -84 217 -173 451 -200 520 -27 69 -79 204 -115
300 -37 96 -70 184 -75 195 -5 11 -19 47 -31 80 -12 33 -25 69 -30 81 -7 19
-2 24 43 44 118 52 212 150 258 268 28 73 35 216 13 288 -46 155 -146 263
-299 324 -73 30 -200 35 -280 12 -22 -6 -146 -52 -275 -102 -228 -89 -358
-138 -430 -165 -249 -93 -536 -209 -563 -227 -113 -77 -175 -163 -207 -288
-29 -114 -8 -261 53 -360 108 -176 329 -263 531 -208 38 10 69 17 71 16 2 -4
49 -125 195 -508 73 -190 157 -408 186 -485 86 -220 107 -276 194 -505 46
-118 98 -244 116 -280 96 -183 297 -303 508 -302 66 0 180 23 224 46 15 7 33
11 40 9 18 -7 133 60 215 127 193 155 320 348 435 660 53 142 102 342 118 475
3 28 7 51 8 52 1 2 53 -131 116 -295 62 -163 119 -310 126 -327 7 -16 45 -115
84 -220 40 -104 83 -209 97 -232 137 -241 423 -353 680 -268 272 91 436 357
392 639 -8 46 -92 290 -138 396 -6 14 -89 230 -185 480 -627 1639 -632 1652
-660 1700 -120 203 -359 314 -593 274z"/>
</g>
</svg>
