<?xml version="1.0" encoding="UTF-8" standalone="no"?>
<svg width="151px" height="144px" viewBox="0 0 151 144" version="1.1" xmlns="http://www.w3.org/2000/svg" xmlns:xlink="http://www.w3.org/1999/xlink" xmlns:sketch="http://www.bohemiancoding.com/sketch/ns">
    <!-- Generator: Sketch 3.3.2 (12043) - http://www.bohemiancoding.com/sketch -->
    <title>gridder-logo copy</title>
    <desc>Created with Sketch.</desc>
    <defs></defs>
    <g id="Page-1" stroke="none" stroke-width="1" fill="none" fill-rule="evenodd" sketch:type="MSPage">
        <path d="M42.2870984,102.467658 L31.4076533,72.5766281 L17.5433556,77.6228198 C11.0567434,79.9837535 3.88472896,76.6401609 1.52305344,70.1515107 C-0.838102925,63.6642869 2.51610743,56.4878465 8.99285204,54.1305042 L22.8571497,49.0843126 L11.3771802,17.5433556 C9.01624647,11.0567434 12.3598391,3.88472896 18.8484893,1.52305344 C25.3357131,-0.838102925 32.5121535,2.51610743 34.8694958,8.99285204 L46.3494652,40.533809 L46.3494652,40.533809 L80.2535941,28.1937153 L76.3771802,17.5433556 C74.0162465,11.0567434 77.3598391,3.88472896 83.8484893,1.52305344 C90.3357131,-0.838102925 97.5121535,2.51610743 99.8694958,8.99285204 L103.74591,19.6432117 L126.456644,11.3771802 C132.943257,9.01624647 140.115271,12.3598391 142.476947,18.8484893 C144.838103,25.3357131 141.483893,32.5121535 135.007148,34.8694958 L112.296413,43.1355272 L123.175858,73.026557 L133.602115,69.2317101 C140.088727,66.8707763 147.260741,70.2143689 149.622417,76.7030191 C151.983573,83.1902429 148.629363,90.3666833 142.152618,92.7240256 L131.726362,96.5188725 L142.62282,126.456644 C144.983754,132.943257 141.640161,140.115271 135.151511,142.476947 C128.664287,144.838103 121.487846,141.483893 119.130504,135.007148 L108.234046,105.069376 L74.3299175,117.40947 L77.6228198,126.456644 C79.9837535,132.943257 76.6401609,140.115271 70.1515107,142.476947 C63.6642869,144.838103 56.4878465,141.483893 54.1305042,135.007148 L50.837602,125.959973 L24.6888258,135.47735 C18.2022136,137.838283 11.0301991,134.494691 8.6685236,128.006041 C6.30736723,121.518817 9.66157759,114.342376 16.1383222,111.985034 L42.2870984,102.467658 Z M65.7794139,93.9171543 L54.8999688,64.0261245 L88.8040977,51.6860308 L99.6835428,81.5770606 L65.7794139,93.9171543 Z" id="Rectangle-1" fill="#F06D06" sketch:type="MSShapeGroup"></path>
    </g>
</svg>